<svg xmlns="http://www.w3.org/2000/svg" width="222" height="101" viewBox="0 0 222 101">
    <g fill="none" fill-rule="evenodd">
        <path fill="#59C9DE" d="M27.36 37.632v26.88H.48v-26.88h26.88zm37.632 0v26.88h-26.88v-26.88h26.88zM27.36 0v26.88H.48V0h26.88zm37.632 0v26.88h-26.88V0h26.88z"/>
        <path fill="#F44668" d="M170.496 37.632c7.423 0 13.44 6.017 13.44 13.44 0 7.423-6.017 13.44-13.44 13.44-7.423 0-13.44-6.017-13.44-13.44 0-7.423 6.017-13.44 13.44-13.44zm37.632 0c7.423 0 13.44 6.017 13.44 13.44 0 7.423-6.017 13.44-13.44 13.44-7.423 0-13.44-6.017-13.44-13.44 0-7.423 6.017-13.44 13.44-13.44zM170.496 0c7.423 0 13.44 6.017 13.44 13.44 0 7.423-6.017 13.44-13.44 13.44-7.423 0-13.44-6.017-13.44-13.44 0-7.423 6.017-13.44 13.44-13.44zm37.632 0c7.423 0 13.44 6.017 13.44 13.44 0 7.423-6.017 13.44-13.44 13.44-7.423 0-13.44-6.017-13.44-13.44 0-7.423 6.017-13.44 13.44-13.44z"/>
        <path fill="#FDD231" d="M143.616 0v64.512H79.104V0h64.512zM111.36 13.249L92.353 32.256l19.007 19.007 19.007-19.007-19.007-19.007z"/>
        <path fill="#131F21" fill-rule="nonzero" d="M6.684 96.726c1.47 0 2.69-.391 3.689-1.033v.698h4.493V78.264h-4.493v5.365c-.999-.642-2.219-1.033-3.689-1.033C3.051 82.596 0 85.612 0 89.633c0 4.05 3.05 7.093 6.684 7.093zm.888-3.714c-1.83 0-3.162-1.48-3.162-3.379 0-1.843 1.331-3.35 3.162-3.35.998 0 1.969.306 2.8 1.284v4.188c-.831.978-1.802 1.257-2.8 1.257zm16.073 3.658c1.47 0 2.69-.39 3.69-1.033v.754h4.492V82.848h-4.493v.726c-.998-.643-2.219-1.034-3.689-1.034-3.633 0-6.684 3.016-6.684 7.065 0 4.021 3.051 7.065 6.684 7.065zm.888-3.714c-1.83 0-3.162-1.48-3.162-3.35 0-1.872 1.331-3.38 3.162-3.38.998 0 1.969.308 2.801 1.285V91.7c-.832.977-1.803 1.256-2.801 1.256zm16.795 3.854c1.331 0 2.33-.112 4.077-.67l-.5-3.826c-.998.195-1.747.335-2.385.335-1.33 0-2.108-.67-2.108-2.038v-3.882h4.577v-3.881h-4.577V78.24h-4.491l-.002 4.608h-2.634v3.881h2.634v4.021c0 3.658 2.164 6.06 5.409 6.06zm11.691-.14c1.47 0 2.69-.39 3.69-1.033v.754H61.2V82.848h-4.493v.726c-.998-.643-2.219-1.034-3.689-1.034-3.633 0-6.684 3.016-6.684 7.065 0 4.021 3.051 7.065 6.684 7.065zm.888-3.714c-1.83 0-3.162-1.48-3.162-3.35 0-1.872 1.331-3.38 3.162-3.38.998 0 1.97.308 2.801 1.285V91.7c-.832.977-1.803 1.256-2.801 1.256zm18.653 3.435l5.824-13.543h-4.742l-3.218 7.818-3.217-7.818h-4.742l5.824 13.543h4.271zm12.33.28c1.47 0 2.69-.392 3.688-1.034v.754h4.493V82.848h-4.493v.726c-.998-.643-2.218-1.034-3.688-1.034-3.634 0-6.684 3.016-6.684 7.065 0 4.021 3.05 7.065 6.684 7.065zm.887-3.715c-1.83 0-3.162-1.48-3.162-3.35 0-1.872 1.332-3.38 3.162-3.38.999 0 1.97.308 2.801 1.285V91.7c-.832.977-1.802 1.256-2.8 1.256zm14.576 3.435V78.264H95.86v18.127h4.493zm8.391.419c1.443 0 2.607-.475 3.69-1.313v.894h4.492V82.848h-4.493v8.544c-.776.866-1.636 1.34-2.468 1.34-1.47 0-2.469-.92-2.469-2.848v-7.036h-4.493v7.735c0 3.853 2.33 6.227 5.741 6.227zm17.655-.112c3.328 0 5.908-1.76 6.545-4.552h-4.437c-.388.615-1.11.978-2.052.978-1.72 0-2.663-.95-3.024-2.178h9.597l-.028-.084c.083-.503.083-1.033.083-1.536 0-4.077-2.967-6.786-6.878-6.786-4.299 0-7.156 2.96-7.156 7.065 0 4.133 2.94 7.093 7.35 7.093zm2.468-8.405h-5.491c.333-1.369 1.304-2.262 2.829-2.262 1.442 0 2.413.782 2.662 2.262zm10.916 12.507v-5.163c.998.642 2.218 1.033 3.688 1.033 3.634 0 6.684-3.044 6.684-7.065 0-4.049-3.05-7.065-6.684-7.065-1.47 0-2.69.391-3.688 1.034v-.726h-4.493V100.8h4.493zm2.8-7.844c-.998 0-1.968-.28-2.8-1.256v-4.19c.832-.976 1.802-1.284 2.8-1.284 1.831 0 3.163 1.508 3.163 3.38 0 1.87-1.332 3.35-3.162 3.35zm16.49 3.742c3.329 0 5.908-1.76 6.546-4.552h-4.438c-.388.615-1.109.978-2.052.978-1.72 0-2.663-.95-3.023-2.178h9.596l-.028-.084c.084-.503.084-1.033.084-1.536 0-4.077-2.968-6.786-6.879-6.786-4.298 0-7.155 2.96-7.155 7.065 0 4.133 2.94 7.093 7.35 7.093zm2.469-8.405h-5.492c.333-1.369 1.304-2.262 2.83-2.262 1.442 0 2.412.782 2.662 2.262zm13.106 8.517c4.244 0 7.294-3.072 7.294-7.205 0-4.077-3.05-7.065-7.294-7.065-4.243 0-7.294 2.988-7.294 7.065 0 4.133 3.05 7.205 7.294 7.205zm.028-3.91c-1.83 0-3.051-1.452-3.051-3.267 0-1.76 1.22-3.183 3.05-3.183 1.804 0 3.024 1.424 3.024 3.183 0 1.815-1.22 3.267-3.023 3.267zm13.966 7.9v-5.163c.998.642 2.219 1.033 3.688 1.033 3.634 0 6.685-3.044 6.685-7.065 0-4.049-3.051-7.065-6.685-7.065-1.47 0-2.69.391-3.688 1.034v-.726h-4.493V100.8h4.493zm2.801-7.844c-.998 0-1.97-.28-2.801-1.256v-4.19c.832-.976 1.803-1.284 2.801-1.284 1.83 0 3.162 1.508 3.162 3.38 0 1.87-1.332 3.35-3.162 3.35zm14.16 3.435V78.264h-4.493v18.127h4.493zm9.473.307c3.328 0 5.907-1.76 6.545-4.552h-4.437c-.389.615-1.11.978-2.053.978-1.72 0-2.662-.95-3.023-2.178h9.597l-.028-.084c.083-.503.083-1.033.083-1.536 0-4.077-2.968-6.786-6.878-6.786-4.3 0-7.156 2.96-7.156 7.065 0 4.133 2.94 7.093 7.35 7.093zm2.468-8.405h-5.491c.333-1.369 1.303-2.262 2.829-2.262 1.442 0 2.413.782 2.662 2.262z"/>
    </g>
</svg>
