<?xml version="1.0" encoding="UTF-8"?>
<svg width="222px" height="23px" viewBox="0 0 222 23" version="1.1" xmlns="http://www.w3.org/2000/svg" xmlns:xlink="http://www.w3.org/1999/xlink">
    <!-- Generator: Sketch 61.2 (89653) - https://sketch.com -->
    <title>logo_type_white</title>
    <desc>Created with Sketch.</desc>
    <g id="Page-1" stroke="none" stroke-width="1" fill="none" fill-rule="evenodd">
        <g id="Sketch_C" transform="translate(-333.000000, -139.000000)" fill="#FFFFFF" fill-rule="nonzero">
            <path d="M339.684074,157.485973 C341.154016,157.485973 342.374345,157.095031 343.372796,156.452769 L343.372796,157.150879 L347.865825,157.150879 L347.865825,139.024495 L343.372796,139.024495 L343.372796,144.389415 C342.374345,143.747153 341.154016,143.356211 339.684074,143.356211 C336.050822,143.356211 333,146.37205 333,150.393167 C333,154.44221 336.050822,157.485973 339.684074,157.485973 Z M340.571586,153.772023 C338.741093,153.772023 337.409825,152.292029 337.409825,150.393167 C337.409825,148.550155 338.741093,147.042236 340.571586,147.042236 C341.570037,147.042236 342.540753,147.349405 343.372796,148.32676 L343.372796,152.515424 C342.540753,153.492779 341.570037,153.772023 340.571586,153.772023 Z M356.64535,157.430124 C358.115292,157.430124 359.335621,157.039182 360.334072,156.39692 L360.334072,157.150879 L364.827101,157.150879 L364.827101,143.607531 L360.334072,143.607531 L360.334072,144.333566 C359.335621,143.691304 358.115292,143.300362 356.64535,143.300362 C353.012098,143.300362 349.961276,146.316201 349.961276,150.365243 C349.961276,154.386361 353.012098,157.430124 356.64535,157.430124 Z M357.532862,153.716175 C355.702369,153.716175 354.371101,152.23618 354.371101,150.365243 C354.371101,148.494306 355.702369,146.986387 357.532862,146.986387 C358.531313,146.986387 359.502029,147.293556 360.334072,148.270911 L360.334072,152.459575 C359.502029,153.43693 358.531313,153.716175 357.532862,153.716175 Z M374.32773,157.569746 C375.658998,157.569746 376.657449,157.458048 378.404738,156.89956 L377.905512,153.073913 C376.907061,153.269384 376.158223,153.409006 375.520324,153.409006 C374.189056,153.409006 373.412483,152.73882 373.412483,151.370522 L373.412483,147.489027 L377.988717,147.489027 L377.988717,143.607531 L373.412483,143.607531 L373.412483,139 L368.920826,139 L368.919454,143.607531 L366.284653,143.607531 L366.284653,147.489027 L368.919454,147.489027 L368.919454,151.510145 C368.919454,155.168245 371.082765,157.569746 374.32773,157.569746 Z M386.019404,157.430124 C387.489346,157.430124 388.709675,157.039182 389.708126,156.39692 L389.708126,157.150879 L394.201155,157.150879 L394.201155,143.607531 L389.708126,143.607531 L389.708126,144.333566 C388.709675,143.691304 387.489346,143.300362 386.019404,143.300362 C382.386152,143.300362 379.33533,146.316201 379.33533,150.365243 C379.33533,154.386361 382.386152,157.430124 386.019404,157.430124 Z M386.906916,153.716175 C385.076423,153.716175 383.745155,152.23618 383.745155,150.365243 C383.745155,148.494306 385.076423,146.986387 386.906916,146.986387 C387.905367,146.986387 388.876083,147.293556 389.708126,148.270911 L389.708126,152.459575 C388.876083,153.43693 387.905367,153.716175 386.906916,153.716175 Z M405.560012,157.150879 L411.384309,143.607531 L406.641667,143.607531 L403.424436,151.426371 L400.207206,143.607531 L395.464564,143.607531 L401.288861,157.150879 L405.560012,157.150879 Z M417.889585,157.430124 C419.359527,157.430124 420.579856,157.039182 421.578307,156.39692 L421.578307,157.150879 L426.071336,157.150879 L426.071336,143.607531 L421.578307,143.607531 L421.578307,144.333566 C420.579856,143.691304 419.359527,143.300362 417.889585,143.300362 C414.256333,143.300362 411.205511,146.316201 411.205511,150.365243 C411.205511,154.386361 414.256333,157.430124 417.889585,157.430124 Z M418.777097,153.716175 C416.946604,153.716175 415.615336,152.23618 415.615336,150.365243 C415.615336,148.494306 416.946604,146.986387 418.777097,146.986387 C419.775548,146.986387 420.746264,147.293556 421.578307,148.270911 L421.578307,152.459575 C420.746264,153.43693 419.775548,153.716175 418.777097,153.716175 Z M433.353185,157.150879 L433.353185,139.024495 L428.860156,139.024495 L428.860156,157.150879 L433.353185,157.150879 Z M441.744424,157.569746 C443.186631,157.569746 444.351491,157.095031 445.433146,156.257298 L445.433146,157.150879 L449.926175,157.150879 L449.926175,143.607531 L445.433146,143.607531 L445.433146,152.152407 C444.656573,153.018064 443.796796,153.492779 442.964753,153.492779 C441.494812,153.492779 440.496361,152.571273 440.496361,150.644487 L440.496361,143.607531 L436.003332,143.607531 L436.003332,151.342598 C436.003332,155.196169 438.333051,157.569746 441.744424,157.569746 Z M459.399069,157.458048 C462.727239,157.458048 465.306571,155.698809 465.94447,152.906366 L461.50691,152.906366 C461.118624,153.520704 460.39752,153.883721 459.454539,153.883721 C457.734985,153.883721 456.792003,152.934291 456.431451,151.705616 L466.027674,151.705616 L465.999939,151.621842 C466.083143,151.119203 466.083143,150.588638 466.083143,150.085999 C466.083143,146.009032 463.115525,143.300362 459.204926,143.300362 C454.90604,143.300362 452.049361,146.260352 452.049361,150.365243 C452.049361,154.498059 454.989245,157.458048 459.399069,157.458048 Z M461.867462,149.052795 L456.375982,149.052795 C456.708799,147.684498 457.679515,146.790916 459.204926,146.790916 C460.647133,146.790916 461.617849,147.5728 461.867462,149.052795 Z M472.782563,161.56 L472.782563,156.39692 C473.781014,157.039182 475.001343,157.430124 476.471285,157.430124 C480.104536,157.430124 483.155359,154.386361 483.155359,150.365243 C483.155359,146.316201 480.104536,143.300362 476.471285,143.300362 C475.001343,143.300362 473.781014,143.691304 472.782563,144.333566 L472.782563,143.607531 L468.289534,143.607531 L468.289534,161.56 L472.782563,161.56 Z M475.583773,153.716175 C474.585322,153.716175 473.614606,153.43693 472.782563,152.459575 L472.782563,148.270911 C473.614606,147.293556 474.585322,146.986387 475.583773,146.986387 C477.414266,146.986387 478.745534,148.494306 478.745534,150.365243 C478.745534,152.23618 477.414266,153.716175 475.583773,153.716175 Z M492.073558,157.458048 C495.401728,157.458048 497.981059,155.698809 498.618959,152.906366 L494.181399,152.906366 C493.793112,153.520704 493.072009,153.883721 492.129028,153.883721 C490.409473,153.883721 489.466492,152.934291 489.10594,151.705616 L498.702163,151.705616 L498.674428,151.621842 C498.757632,151.119203 498.757632,150.588638 498.757632,150.085999 C498.757632,146.009032 495.790014,143.300362 491.879415,143.300362 C487.580529,143.300362 484.72385,146.260352 484.72385,150.365243 C484.72385,154.498059 487.663733,157.458048 492.073558,157.458048 Z M494.541951,149.052795 L489.050471,149.052795 C489.383288,147.684498 490.354004,146.790916 491.879415,146.790916 C493.321622,146.790916 494.292338,147.5728 494.541951,149.052795 Z M507.648097,157.569746 C511.891513,157.569746 514.942336,154.498059 514.942336,150.365243 C514.942336,146.288276 511.891513,143.300362 507.648097,143.300362 C503.404681,143.300362 500.353858,146.288276 500.353858,150.365243 C500.353858,154.498059 503.404681,157.569746 507.648097,157.569746 Z M507.675832,153.660326 C505.845338,153.660326 504.62501,152.208255 504.62501,150.393167 C504.62501,148.633928 505.845338,147.209782 507.675832,147.209782 C509.47859,147.209782 510.698919,148.633928 510.698919,150.393167 C510.698919,152.208255 509.47859,153.660326 507.675832,153.660326 Z M521.641755,161.56 L521.641755,156.39692 C522.640206,157.039182 523.860535,157.430124 525.330477,157.430124 C528.963729,157.430124 532.014551,154.386361 532.014551,150.365243 C532.014551,146.316201 528.963729,143.300362 525.330477,143.300362 C523.860535,143.300362 522.640206,143.691304 521.641755,144.333566 L521.641755,143.607531 L517.148726,143.607531 L517.148726,161.56 L521.641755,161.56 Z M524.442965,153.716175 C523.444514,153.716175 522.473798,153.43693 521.641755,152.459575 L521.641755,148.270911 C522.473798,147.293556 523.444514,146.986387 524.442965,146.986387 C526.273458,146.986387 527.604726,148.494306 527.604726,150.365243 C527.604726,152.23618 526.273458,153.716175 524.442965,153.716175 Z M538.603031,157.150879 L538.603031,139.024495 L534.110002,139.024495 L534.110002,157.150879 L538.603031,157.150879 Z M548.075926,157.458048 C551.404096,157.458048 553.983427,155.698809 554.621326,152.906366 L550.183767,152.906366 C549.79548,153.520704 549.074377,153.883721 548.131395,153.883721 C546.411841,153.883721 545.46886,152.934291 545.108308,151.705616 L554.704531,151.705616 L554.676796,151.621842 C554.76,151.119203 554.76,150.588638 554.76,150.085999 C554.76,146.009032 551.792382,143.300362 547.881783,143.300362 C543.582897,143.300362 540.726218,146.260352 540.726218,150.365243 C540.726218,154.498059 543.666101,157.458048 548.075926,157.458048 Z M550.544318,149.052795 L545.052838,149.052795 C545.385655,147.684498 546.356372,146.790916 547.881783,146.790916 C549.32399,146.790916 550.294706,147.5728 550.544318,149.052795 Z" id="logo_type_white"></path>
        </g>
    </g>
</svg>