<?xml version="1.0" encoding="UTF-8"?>
<svg width="30px" height="30px" viewBox="0 0 30 30" version="1.1" xmlns="http://www.w3.org/2000/svg" xmlns:xlink="http://www.w3.org/1999/xlink">
    <!-- Generator: Sketch 63.1 (92452) - https://sketch.com -->
    <title>icon2_trackrecord</title>
    <desc>Created with Sketch.</desc>
    <g id="icon2_trackrecord" stroke="none" stroke-width="1" fill="none" fill-rule="evenodd">
        <g id="Group-5-Copy-2">
            <path d="M1.73099415,1.73099415 L1.73099415,7.35672515 C1.73099415,7.59572567 1.53724614,7.78947368 1.29824561,7.78947368 L0.432748538,7.78947368 C0.193748012,7.78947368 0,7.59572567 0,7.35672515 L0,0.865497076 C0,0.387496456 0.387496456,0 0.865497076,0 L7.35672515,0 C7.59572567,0 7.78947368,0.193748012 7.78947368,0.432748538 L7.78947368,1.29824561 C7.78947368,1.53724614 7.59572567,1.73099415 7.35672515,1.73099415 L1.73099415,1.73099415 Z" id="Path" fill="#F44668" fill-rule="nonzero"></path>
            <path d="M28.1637427,1.73099415 L22.5380117,1.73099415 C22.2990112,1.73099415 22.1052632,1.53724614 22.1052632,1.29824561 L22.1052632,0.432748538 C22.1052632,0.193748012 22.2990112,0 22.5380117,0 L29.0292398,0 C29.5072404,0 29.8947368,0.387496456 29.8947368,0.865497076 L29.8947368,7.35672515 C29.8947368,7.59572567 29.7009888,7.78947368 29.4619883,7.78947368 L28.5964912,7.78947368 C28.3574907,7.78947368 28.1637427,7.59572567 28.1637427,7.35672515 L28.1637427,1.73099415 Z" id="Path" fill="#F44668" fill-rule="nonzero"></path>
            <path d="M1.73099415,28.1637427 L7.35672515,28.1637427 C7.59572567,28.1637427 7.78947368,28.3574907 7.78947368,28.5964912 L7.78947368,29.4619883 C7.78947368,29.7009888 7.59572567,29.8947368 7.35672515,29.8947368 L0.865497076,29.8947368 C0.387496456,29.8947368 0,29.5072404 0,29.0292398 L0,22.5380117 C0,22.2990112 0.193748012,22.1052632 0.432748538,22.1052632 L1.29824561,22.1052632 C1.53724614,22.1052632 1.73099415,22.2990112 1.73099415,22.5380117 L1.73099415,28.1637427 Z" id="Path" fill="#F44668" fill-rule="nonzero"></path>
            <path d="M28.1637427,28.1637427 L28.1637427,22.5380117 C28.1637427,22.2990112 28.3574907,22.1052632 28.5964912,22.1052632 L29.4619883,22.1052632 C29.7009888,22.1052632 29.8947368,22.2990112 29.8947368,22.5380117 L29.8947368,29.0292398 C29.8947368,29.5072404 29.5072404,29.8947368 29.0292398,29.8947368 L22.5380117,29.8947368 C22.2990112,29.8947368 22.1052632,29.7009888 22.1052632,29.4619883 L22.1052632,28.5964912 C22.1052632,28.3574907 22.2990112,28.1637427 22.5380117,28.1637427 L28.1637427,28.1637427 Z" id="Path" fill="#F44668" fill-rule="nonzero"></path>
            <g id="Group-4" transform="translate(4.210526, 4.210526)">
                <polygon id="Path" fill="#59C9DE" points="5.65894737 7.92252632 5.65894737 13.5814737 -2.75615788e-13 13.5814737 -2.75615788e-13 7.92252632"></polygon>
                <polygon id="Path-Copy-7" fill="#59C9DE" points="5.65894737 15.7894737 5.65894737 21.4484211 -2.75615788e-13 21.4484211 -2.75615788e-13 15.7894737"></polygon>
                <polygon id="Path" fill="#F44668" points="13.5814737 7.92252632 13.5814737 13.5814737 7.92252632 13.5814737 7.92252632 7.92252632"></polygon>
                <polygon id="Path-Copy-8" fill="#59C9DE" points="13.5814737 15.7894737 13.5814737 21.4484211 7.92252632 21.4484211 7.92252632 15.7894737"></polygon>
                <polygon id="Path-Copy-5" fill="#59C9DE" points="21.4484211 7.92252632 21.4484211 13.5814737 15.7894737 13.5814737 15.7894737 7.92252632"></polygon>
                <polygon id="Path-Copy-9" fill="#59C9DE" points="21.4484211 15.7894737 21.4484211 21.4484211 15.7894737 21.4484211 15.7894737 15.7894737"></polygon>
                <polygon id="Path" fill="#59C9DE" points="5.65894737 -8.41432187e-14 5.65894737 5.65894737 -2.75615788e-13 5.65894737 -2.75615788e-13 -8.41432187e-14"></polygon>
                <polygon id="Path" fill="#59C9DE" points="13.5814737 -8.41432187e-14 13.5814737 5.65894737 7.92252632 5.65894737 7.92252632 -8.41432187e-14"></polygon>
                <polygon id="Path-Copy-6" fill="#59C9DE" points="21.4484211 -8.41432187e-14 21.4484211 5.65894737 15.7894737 5.65894737 15.7894737 -8.41432187e-14"></polygon>
            </g>
        </g>
    </g>
</svg>