<?xml version="1.0" encoding="UTF-8"?>
<svg width="30px" height="30px" viewBox="0 0 30 30" version="1.1" xmlns="http://www.w3.org/2000/svg" xmlns:xlink="http://www.w3.org/1999/xlink">
    <!-- Generator: Sketch 63.1 (92452) - https://sketch.com -->
    <title>icon3_trackrecord</title>
    <desc>Created with Sketch.</desc>
    <g id="icon3_trackrecord" stroke="none" stroke-width="1" fill="none" fill-rule="evenodd">
        <g id="Group-7-Copy" transform="translate(0.000000, 4.000000)">
            <polygon id="Path-Copy-7" fill="#59C9DE" points="6.01791045 17.8835821 6.01791045 26.6149254 -2.93098879e-13 26.6149254 -2.93098879e-13 17.8835821"></polygon>
            <polygon id="Path-Copy-15" fill="#FDD231" points="6.01791045 9.17910448 6.01791045 17.9104478 -2.93098879e-13 17.9104478 -2.93098879e-13 9.17910448"></polygon>
            <polygon id="Path-Copy-10" fill="#59C9DE" points="14.0776119 10.9432836 14.0776119 26.6149254 8.05970149 26.6149254 8.05970149 10.9432836"></polygon>
            <polygon id="Path-Copy-11" fill="#59C9DE" points="22.1373134 13.4059701 22.1373134 26.6149254 16.119403 26.6149254 16.119403 13.4059701"></polygon>
            <polygon id="Path-Copy-13" fill="#FDD231" points="22.1373134 4.70149254 22.1373134 13.4328358 16.119403 13.4328358 16.119403 4.70149254"></polygon>
            <polygon id="Path-Copy-14" fill="#F44668" points="14.0776119 7.8358209 14.0776119 10.9701493 8.05970149 10.9701493 8.05970149 7.8358209"></polygon>
            <polygon id="Path-Copy-16" fill="#FDD231" points="14.0776119 0 14.0776119 7.8358209 8.05970149 7.8358209 8.05970149 0"></polygon>
            <polygon id="Path-Copy-12" fill="#59C9DE" points="29.9731343 19.8985075 29.9731343 26.6149254 23.9552239 26.6149254 23.9552239 19.8985075"></polygon>
        </g>
    </g>
</svg>