<?xml version="1.0" encoding="UTF-8"?>
<svg width="30px" height="30px" viewBox="0 0 30 30" version="1.1" xmlns="http://www.w3.org/2000/svg" xmlns:xlink="http://www.w3.org/1999/xlink">
    <!-- Generator: Sketch 63.1 (92452) - https://sketch.com -->
    <title>icon1_trackrecord</title>
    <desc>Created with Sketch.</desc>
    <g id="icon1_trackrecord" stroke="none" stroke-width="1" fill="none" fill-rule="evenodd">
        <g id="Group-6-Copy-3">
            <path d="M2.88,8.064 C4.47058008,8.064 5.76,9.35341992 5.76,10.944 C5.76,12.5345801 4.47058008,13.824 2.88,13.824 C1.28941992,13.824 -2.80537498e-13,12.5345801 -2.80537498e-13,10.944 C-2.80537498e-13,9.35341992 1.28941992,8.064 2.88,8.064 Z" id="Path" fill="#F44668"></path>
            <path d="M10.944,8.064 C12.5345801,8.064 13.824,9.35341992 13.824,10.944 C13.824,12.5345801 12.5345801,13.824 10.944,13.824 C9.35341992,13.824 8.064,12.5345801 8.064,10.944 C8.064,9.35341992 9.35341992,8.064 10.944,8.064 Z" id="Path" fill="#FDD231"></path>
            <path d="M2.88,-8.56457762e-14 C4.47058008,-8.56457762e-14 5.76,1.28941992 5.76,2.88 C5.76,4.47058008 4.47058008,5.76 2.88,5.76 C1.28941992,5.76 -2.80537498e-13,4.47058008 -2.80537498e-13,2.88 C-2.80537498e-13,1.28941992 1.28941992,-8.56457762e-14 2.88,-8.56457762e-14 Z" id="Path" fill="#59C9DE"></path>
            <path d="M10.944,-8.56457762e-14 C12.5345801,-8.56457762e-14 13.824,1.28941992 13.824,2.88 C13.824,4.47058008 12.5345801,5.76 10.944,5.76 C9.35341992,5.76 8.064,4.47058008 8.064,2.88 C8.064,1.28941992 9.35341992,-8.56457762e-14 10.944,-8.56457762e-14 Z" id="Path" fill="#FDD231"></path>
            <path d="M2.88,24.1354286 C4.47058008,24.1354286 5.76,25.4248485 5.76,27.0154286 C5.76,28.6060087 4.47058008,29.8954286 2.88,29.8954286 C1.28941992,29.8954286 -2.80537498e-13,28.6060087 -2.80537498e-13,27.0154286 C-2.80537498e-13,25.4248485 1.28941992,24.1354286 2.88,24.1354286 Z" id="Path" fill="#FDD231"></path>
            <path d="M10.944,24.1354286 C12.5345801,24.1354286 13.824,25.4248485 13.824,27.0154286 C13.824,28.6060087 12.5345801,29.8954286 10.944,29.8954286 C9.35341992,29.8954286 8.064,28.6060087 8.064,27.0154286 C8.064,25.4248485 9.35341992,24.1354286 10.944,24.1354286 Z" id="Path" fill="#59C9DE"></path>
            <path d="M2.88,16.0714286 C4.47058008,16.0714286 5.76,17.3608485 5.76,18.9514286 C5.76,20.5420087 4.47058008,21.8314286 2.88,21.8314286 C1.28941992,21.8314286 -2.80537498e-13,20.5420087 -2.80537498e-13,18.9514286 C-2.80537498e-13,17.3608485 1.28941992,16.0714286 2.88,16.0714286 Z" id="Path" fill="#FDD231"></path>
            <path d="M10.944,16.0714286 C12.5345801,16.0714286 13.824,17.3608485 13.824,18.9514286 C13.824,20.5420087 12.5345801,21.8314286 10.944,21.8314286 C9.35341992,21.8314286 8.064,20.5420087 8.064,18.9514286 C8.064,17.3608485 9.35341992,16.0714286 10.944,16.0714286 Z" id="Path" fill="#F44668"></path>
            <path d="M18.9514286,8.064 C20.5420087,8.064 21.8314286,9.35341992 21.8314286,10.944 C21.8314286,12.5345801 20.5420087,13.824 18.9514286,13.824 C17.3608485,13.824 16.0714286,12.5345801 16.0714286,10.944 C16.0714286,9.35341992 17.3608485,8.064 18.9514286,8.064 Z" id="Path" fill="#F44668"></path>
            <path d="M27.0154286,8.064 C28.6060087,8.064 29.8954286,9.35341992 29.8954286,10.944 C29.8954286,12.5345801 28.6060087,13.824 27.0154286,13.824 C25.4248485,13.824 24.1354286,12.5345801 24.1354286,10.944 C24.1354286,9.35341992 25.4248485,8.064 27.0154286,8.064 Z" id="Path" fill="#59C9DE"></path>
            <path d="M18.9514286,-8.56457762e-14 C20.5420087,-8.56457762e-14 21.8314286,1.28941992 21.8314286,2.88 C21.8314286,4.47058008 20.5420087,5.76 18.9514286,5.76 C17.3608485,5.76 16.0714286,4.47058008 16.0714286,2.88 C16.0714286,1.28941992 17.3608485,-8.56457762e-14 18.9514286,-8.56457762e-14 Z" id="Path" fill="#59C9DE"></path>
            <path d="M27.0154286,-8.56457762e-14 C28.6060087,-8.56457762e-14 29.8954286,1.28941992 29.8954286,2.88 C29.8954286,4.47058008 28.6060087,5.76 27.0154286,5.76 C25.4248485,5.76 24.1354286,4.47058008 24.1354286,2.88 C24.1354286,1.28941992 25.4248485,-8.56457762e-14 27.0154286,-8.56457762e-14 Z" id="Path" fill="#FDD231"></path>
            <path d="M18.9514286,24.1354286 C20.5420087,24.1354286 21.8314286,25.4248485 21.8314286,27.0154286 C21.8314286,28.6060087 20.5420087,29.8954286 18.9514286,29.8954286 C17.3608485,29.8954286 16.0714286,28.6060087 16.0714286,27.0154286 C16.0714286,25.4248485 17.3608485,24.1354286 18.9514286,24.1354286 Z" id="Path" fill="#FDD231"></path>
            <path d="M27.0154286,24.1354286 C28.6060087,24.1354286 29.8954286,25.4248485 29.8954286,27.0154286 C29.8954286,28.6060087 28.6060087,29.8954286 27.0154286,29.8954286 C25.4248485,29.8954286 24.1354286,28.6060087 24.1354286,27.0154286 C24.1354286,25.4248485 25.4248485,24.1354286 27.0154286,24.1354286 Z" id="Path" fill="#F44668"></path>
            <path d="M18.9514286,16.0714286 C20.5420087,16.0714286 21.8314286,17.3608485 21.8314286,18.9514286 C21.8314286,20.5420087 20.5420087,21.8314286 18.9514286,21.8314286 C17.3608485,21.8314286 16.0714286,20.5420087 16.0714286,18.9514286 C16.0714286,17.3608485 17.3608485,16.0714286 18.9514286,16.0714286 Z" id="Path" fill="#FDD231"></path>
            <path d="M27.0154286,16.0714286 C28.6060087,16.0714286 29.8954286,17.3608485 29.8954286,18.9514286 C29.8954286,20.5420087 28.6060087,21.8314286 27.0154286,21.8314286 C25.4248485,21.8314286 24.1354286,20.5420087 24.1354286,18.9514286 C24.1354286,17.3608485 25.4248485,16.0714286 27.0154286,16.0714286 Z" id="Path" fill="#FDD231"></path>
        </g>
    </g>
</svg>