<?xml version="1.0" encoding="UTF-8"?>
<svg width="32px" height="32px" viewBox="0 0 32 32" version="1.1" xmlns="http://www.w3.org/2000/svg" xmlns:xlink="http://www.w3.org/1999/xlink">
    <!-- Generator: Sketch 62 (91390) - https://sketch.com -->
    <title>Github_icon</title>
    <desc>Created with Sketch.</desc>
    <g id="Page-1" stroke="none" stroke-width="1" fill="none" fill-rule="evenodd">
        <path d="M15.9993,0.3947 C7.1643,0.3947 0.0003,7.5577 0.0003,16.3957 C0.0003,23.4637 4.5843,29.4607 10.9433,31.5767 C11.7433,31.7237 12.0353,31.2297 12.0353,30.8057 C12.0353,30.4257 12.0213,29.4197 12.0133,28.0847 C7.5623,29.0517 6.6233,25.9397 6.6233,25.9397 C5.8963,24.0917 4.8473,23.5997 4.8473,23.5997 C3.3943,22.6067 4.9573,22.6267 4.9573,22.6267 C6.5623,22.7397 7.4073,24.2757 7.4073,24.2757 C8.8353,26.7207 11.1523,26.0147 12.0643,25.6047 C12.2093,24.5707 12.6233,23.8657 13.0803,23.4657 C9.5273,23.0617 5.7923,21.6897 5.7923,15.5587 C5.7923,13.8117 6.4153,12.3837 7.4393,11.2647 C7.2743,10.8597 6.7253,9.2337 7.5953,7.0307 C7.5953,7.0307 8.9393,6.6007 11.9953,8.6707 C13.2723,8.3157 14.6403,8.1387 16.0013,8.1317 C17.3603,8.1387 18.7293,8.3157 20.0073,8.6707 C23.0613,6.6007 24.4023,7.0307 24.4023,7.0307 C25.2753,9.2337 24.7263,10.8597 24.5613,11.2647 C25.5873,12.3837 26.2063,13.8117 26.2063,15.5587 C26.2063,21.7047 22.4653,23.0577 18.9013,23.4537 C19.4753,23.9477 19.9873,24.9237 19.9873,26.4167 C19.9873,28.5557 19.9673,30.2807 19.9673,30.8057 C19.9673,31.2337 20.2553,31.7317 21.0673,31.5747 C27.4203,29.4547 32.0003,23.4617 32.0003,16.3957 C32.0003,7.5577 24.8363,0.3947 15.9993,0.3947" id="Github_icon" fill="#131F21"></path>
    </g>
</svg>