<?xml version="1.0" encoding="UTF-8"?>
<svg width="32px" height="32px" viewBox="0 0 32 32" version="1.1" xmlns="http://www.w3.org/2000/svg" xmlns:xlink="http://www.w3.org/1999/xlink">
    <!-- Generator: Sketch 62 (91390) - https://sketch.com -->
    <title>linkedin_icon</title>
    <desc>Created with Sketch.</desc>
    <g id="Page-1" stroke="none" stroke-width="1" fill="none" fill-rule="evenodd">
        <path d="M27.269,27.267 L22.523,27.267 L22.523,19.841 C22.523,18.07 22.493,15.792 20.057,15.792 C17.588,15.792 17.211,17.722 17.211,19.714 L17.211,27.267 L12.47,27.267 L12.47,11.996 L17.02,11.996 L17.02,14.084 L17.085,14.084 C17.718,12.883 19.266,11.617 21.575,11.617 C26.381,11.617 27.269,14.779 27.269,18.892 L27.269,27.267 Z M7.119,9.91 C5.594,9.91 4.365,8.677 4.365,7.157 C4.365,5.638 5.594,4.405 7.119,4.405 C8.637,4.405 9.87,5.638 9.87,7.157 C9.87,8.677 8.637,9.91 7.119,9.91 L7.119,9.91 Z M9.493,27.267 L4.742,27.267 L4.742,11.996 L9.493,11.996 L9.493,27.267 Z M30.667,0 L1.334,0 C0.597,0 0,0.597 0,1.333 L0,30.666 C0,31.403 0.597,32 1.334,32 L30.667,32 C31.403,32 32,31.403 32,30.666 L32,1.333 C32,0.597 31.403,0 30.667,0 L30.667,0 Z" id="linkedin_icon" fill="#131F21"></path>
    </g>
</svg>